<svg version="1.1" id="Layer_1" xmlns="http://www.w3.org/2000/svg" xmlns:xlink="http://www.w3.org/1999/xlink" x="0px" y="0px"
	 width="100%" viewBox="0 0 512 512" enable-background="new 0 0 512 512" xml:space="preserve">
<path fill="#000000" opacity="1.000000" stroke="none" 
	d="
M304.760712,1.334570 
	C372.940338,1.000000 440.880768,1.042435 508.820770,0.887057 
	C512.610657,0.878389 513.086182,1.892958 513.082520,5.313659 
	C512.979614,100.563248 513.000000,195.812973 513.000000,291.531342 
	C510.691132,293.684357 509.240936,291.953247 507.897369,290.552216 
	C504.631226,287.146393 500.776855,285.538483 496.026031,284.976257 
	C490.253082,284.293091 485.153900,281.552429 482.133881,276.319794 
	C477.829926,268.862549 472.181091,263.092438 464.059204,259.880890 
	C461.767822,258.974823 460.520294,256.999786 459.802002,254.635666 
	C458.316040,249.745026 455.721008,245.438110 451.788086,242.214737 
	C448.456818,239.484497 447.312714,236.275040 447.714935,232.130203 
	C448.371765,225.362183 447.138336,218.934601 444.222900,212.732468 
	C441.881195,207.750839 438.380310,204.724060 432.801758,204.422012 
	C427.278229,204.122955 423.734497,207.049347 421.299530,211.682861 
	C420.912170,212.419922 420.527527,213.158325 420.124329,213.886765 
	C415.276825,222.645065 405.219879,223.619812 400.228668,215.042160 
	C395.584290,207.060455 389.280579,204.606918 380.768188,205.203522 
	C375.353577,205.583023 369.884186,204.866867 363.526672,205.702713 
	C369.717010,211.331177 373.417145,219.039444 383.063782,217.751389 
	C385.753998,217.392181 387.706329,219.223297 389.010315,221.584091 
	C397.672150,237.265869 417.777283,236.690811 428.150330,225.718277 
	C429.474121,224.317993 430.933319,223.064957 432.912659,223.884399 
	C434.890045,224.703018 435.131348,226.681824 435.042297,228.563599 
	C434.833252,232.980789 433.581268,237.082336 430.855286,240.617737 
	C429.556030,242.302689 428.218109,243.946091 426.757965,246.193634 
	C431.585052,247.141418 436.317657,246.838226 440.289246,249.714783 
	C446.432312,254.164078 450.124420,259.777252 448.858887,267.507568 
	C448.255768,271.191284 449.565094,271.958832 452.679138,271.784973 
	C461.087463,271.315491 466.895142,275.226715 470.929657,282.407074 
	C472.551880,285.294220 474.564087,287.984558 477.197845,290.112335 
	C478.701141,291.326813 479.884155,292.824432 479.165741,294.829956 
	C478.428955,296.887024 476.438965,297.074280 474.576233,297.134155 
	C467.417084,297.364349 460.255035,297.227356 453.094360,297.232971 
	C440.603851,297.242798 428.113190,297.235321 415.622681,297.236664 
	C411.747742,297.237091 408.752014,295.996307 405.893188,293.171417 
	C380.564056,268.142334 355.315216,243.033218 330.099701,217.889786 
	C323.391785,211.201080 316.108093,205.094818 309.601379,198.192337 
	C307.714783,196.191025 305.159485,194.479874 305.711395,190.782349 
	C308.194427,188.089508 311.192078,188.783661 313.933075,188.774887 
	C339.753723,188.692337 365.575897,188.598312 391.394531,188.833694 
	C397.202026,188.886627 401.396240,187.071396 405.447083,182.948044 
	C424.008728,164.054276 442.837250,145.422760 461.555634,126.682800 
	C462.966980,125.269798 464.442596,123.907745 465.541382,122.217140 
	C468.742065,117.292564 468.418549,110.386185 464.809784,106.370575 
	C461.577698,102.774147 455.065552,101.774437 449.968506,104.105606 
	C449.210968,104.452057 448.445862,104.837448 447.819122,105.371094 
	C441.323395,110.901840 433.929199,111.989326 425.808563,110.099541 
	C418.970978,108.508324 412.243530,109.120071 405.730621,111.762634 
	C403.749115,112.566620 401.863892,112.505219 399.946533,111.584991 
	C394.744263,109.088249 389.269012,107.870125 383.485382,108.233284 
	C379.715393,108.470001 376.880280,107.029396 374.317291,104.191246 
	C369.615387,98.984581 364.469757,94.392899 357.367676,92.367020 
	C352.060760,90.853203 347.444611,91.335541 343.458374,95.137123 
	C339.423462,98.985115 339.703156,103.885696 341.097565,108.655006 
	C342.755463,114.325760 343.032745,119.464661 337.922363,123.611671 
	C335.594055,125.501068 332.842560,126.791328 330.052063,125.801796 
	C318.913605,121.851959 310.992462,126.923431 304.218750,134.838928 
	C301.707642,137.773315 297.740356,139.584885 296.578979,144.490036 
	C304.077881,144.275253 311.658112,147.059937 317.590576,140.022842 
	C319.532288,137.719620 322.283661,137.285172 325.368011,138.032028 
	C342.761475,142.243683 355.163330,128.752808 355.760986,114.781105 
	C355.858978,112.490700 355.558807,109.633362 358.312531,108.807144 
	C361.385925,107.885002 363.113556,110.400887 364.772919,112.511436 
	C366.566559,114.792824 367.146027,117.590881 368.113831,120.242599 
	C369.029266,122.751022 368.712646,125.427162 369.389404,128.499954 
	C372.554749,126.260437 374.750183,123.348442 378.039368,122.201004 
	C385.632599,119.552094 392.448486,120.822472 398.237366,126.613907 
	C402.350281,130.728622 402.443420,130.820343 406.328522,126.926651 
	C411.165497,122.079025 417.042145,120.894272 423.361969,122.295090 
	C427.134857,123.131363 430.849213,123.744682 434.694427,123.814468 
	C436.849945,123.853584 439.299255,123.784912 440.224762,126.277779 
	C441.094391,128.619965 439.642273,130.622345 438.111786,132.070282 
	C430.632233,139.146408 423.713287,146.770050 416.404541,154.008896 
	C410.498779,159.858261 404.550446,165.669220 398.781616,171.649292 
	C395.795380,174.744858 392.467194,176.024658 388.207550,176.301315 
	C355.924988,178.398041 323.611938,176.709564 291.320099,177.276505 
	C278.679840,177.498413 266.066986,178.838058 253.407211,178.245239 
	C250.955231,178.130402 248.361801,178.653976 245.929550,176.612274 
	C244.670990,172.987671 246.841370,171.019592 248.816544,169.013397 
	C267.673096,149.860703 286.677307,130.854889 305.733704,111.901329 
	C307.740173,109.905685 308.679901,107.561493 308.684937,104.750168 
	C308.739319,74.491074 308.764465,44.232025 308.671539,13.972938 
	C308.662994,11.194815 307.795624,8.761087 306.066010,6.605662 
	C304.911469,5.166952 303.720947,3.725697 304.760712,1.334570 
z"/>
<path fill="#000000" opacity="1.000000" stroke="none" 
	d="
M512.665039,303.764282 
	C513.000000,372.273285 512.957886,440.546631 513.112671,508.819580 
	C513.121277,512.606079 512.111511,513.086670 508.687561,513.082947 
	C414.104248,512.979492 319.520752,513.000000 224.468658,513.000000 
	C222.938904,511.867004 222.750717,510.382172 223.628693,509.328400 
	C227.344604,504.868195 227.730377,499.210510 229.298569,494.008545 
	C230.935059,488.580109 234.093613,484.600494 239.017868,481.924347 
	C245.081635,478.628876 249.486832,473.819550 252.243134,467.484161 
	C253.704453,464.125366 255.965378,461.753754 259.674835,460.656616 
	C264.766357,459.150696 268.684082,455.669189 272.268494,451.939331 
	C274.527618,449.588562 276.950165,448.525177 280.220917,448.711334 
	C286.731354,449.081909 293.160004,448.822021 299.273407,445.955750 
	C304.180695,443.654907 308.312134,440.869690 308.677399,434.863129 
	C309.092377,428.039368 307.136505,424.841583 300.309418,421.730774 
	C295.664185,419.614136 292.526062,416.378601 292.343903,411.206635 
	C292.169922,406.267914 294.748383,402.767914 299.225037,400.555511 
	C305.746033,397.332764 308.445923,391.627777 308.683289,384.699646 
	C308.907990,378.141785 308.851624,371.566528 308.023315,364.871490 
	C302.154816,370.283020 294.258484,373.916931 295.059723,383.657928 
	C295.295502,386.524353 293.791321,388.828766 291.163513,390.130859 
	C276.844238,397.226318 277.389679,418.586212 286.466644,427.753357 
	C287.169556,428.463257 287.890015,429.174835 288.427612,430.016998 
	C290.437561,433.165649 289.397186,435.576691 285.638763,435.981140 
	C280.205414,436.565857 275.517944,434.697357 271.449554,431.107178 
	C270.224792,430.026398 269.303406,428.531860 267.291016,427.975220 
	C265.824402,429.976624 266.913330,432.380432 266.461975,434.522095 
	C264.353180,444.528046 256.465729,451.004272 246.376465,449.915833 
	C242.519257,449.499725 241.830536,450.556702 242.098358,453.978241 
	C242.640381,460.902832 239.769897,466.354065 233.972183,470.043915 
	C229.301773,473.016357 224.936127,476.265961 221.362228,480.521301 
	C220.495987,481.552673 219.528366,482.628113 217.996475,482.006836 
	C216.629333,481.452393 216.139923,480.186035 215.972580,478.794769 
	C215.793167,477.303101 215.770721,475.803375 215.769440,474.303955 
	C215.753815,455.812256 215.876526,437.319275 215.689804,418.829651 
	C215.636826,413.583282 217.388962,409.755615 221.114136,406.084686 
	C248.989624,378.615509 275.687683,349.980499 303.623596,322.565704 
	C308.009827,318.261322 311.655914,313.228363 316.243103,309.086884 
	C317.858704,307.628265 319.364594,305.996613 322.220642,306.680298 
	C324.903839,309.170776 324.216034,312.167206 324.224884,314.909729 
	C324.307526,340.566742 324.369324,366.224792 324.187653,391.880646 
	C324.148315,397.434418 325.755737,401.541992 329.798920,405.522369 
	C349.444946,424.862885 368.820557,444.478851 388.107391,464.180176 
	C392.547333,468.715576 399.632324,470.157379 404.542633,467.548126 
	C408.871155,465.248077 411.284424,460.007935 410.513245,454.804169 
	C410.102386,452.031616 408.528870,449.845581 406.941956,447.743256 
	C402.570557,441.952026 400.852661,435.751068 402.664825,428.523956 
	C404.487061,421.256989 404.032135,413.988586 401.514282,406.881866 
	C400.758789,404.749390 401.110107,402.683289 401.832031,400.546844 
	C403.804749,394.709106 405.623260,388.836212 404.999115,382.506561 
	C404.716675,379.642334 406.129974,377.527679 408.338531,375.650269 
	C414.259583,370.617096 419.232513,364.873016 420.994232,356.974365 
	C423.449005,345.968231 415.532990,338.547760 404.740906,341.780121 
	C402.346375,342.497314 399.989197,343.235931 397.416565,343.084167 
	C390.530914,342.677917 385.577332,337.160980 387.339874,330.538086 
	C390.033081,320.418243 387.185822,312.628876 379.409851,306.086945 
	C376.613647,303.734528 374.229919,300.904999 371.573486,298.379089 
	C370.981262,297.815979 370.352570,297.059265 369.448639,297.306427 
	C368.209778,297.645172 368.321411,298.835754 368.320770,299.784241 
	C368.316040,306.679474 366.942810,313.853271 373.515259,319.123962 
	C375.995941,321.113312 375.236755,324.224731 374.744843,327.095825 
	C372.631561,339.431030 377.927368,349.297241 389.032257,354.355774 
	C392.384155,355.882660 395.864960,355.583618 399.329132,355.823059 
	C401.363007,355.963654 403.558624,356.074493 404.339874,358.333557 
	C405.225098,360.893341 403.857910,362.908386 401.897186,364.387970 
	C397.033997,368.057800 391.416656,369.883545 385.416199,370.435822 
	C385.490173,372.309601 386.790985,372.998749 387.610626,373.994720 
	C394.730591,382.646851 394.047668,392.822754 385.369415,399.995850 
	C382.257660,402.567902 382.279266,403.745544 385.283691,406.338928 
	C390.640533,410.962921 392.222900,417.298401 390.777405,424.058136 
	C389.935883,427.993561 389.215332,431.865051 389.177032,435.882233 
	C389.157898,437.888855 389.135986,440.132324 386.995270,441.103638 
	C384.590485,442.194824 382.892181,440.492584 381.331543,438.966339 
	C369.658539,427.550903 358.111450,416.006561 346.668274,404.363281 
	C333.900940,391.372742 335.816956,396.828674 335.764771,377.980865 
	C335.652679,337.496063 335.709229,297.010742 335.767456,256.525726 
	C335.771912,253.425507 335.088257,250.161331 337.313843,247.015259 
	C341.107452,245.472794 342.830933,248.174072 344.757629,250.085358 
	C362.133698,267.322601 379.606995,284.470276 396.592834,302.086639 
	C402.010498,307.705444 407.573761,310.029358 415.393158,309.896637 
	C441.360352,309.455963 467.339661,309.722626 493.314301,309.737396 
	C498.880188,309.740540 504.349609,309.729828 508.230469,304.648102 
	C509.124054,303.477966 510.708282,302.973511 512.665039,303.764282 
z"/>
<path fill="#000000" opacity="1.000000" stroke="none" 
	d="
M208.235062,512.664673 
	C140.393051,513.000000 72.785995,512.957336 5.179397,513.112915 
	C1.390019,513.121643 0.913657,512.107727 0.917387,508.686554 
	C1.020505,414.103577 1.000000,319.520416 1.000000,224.468658 
	C2.924499,222.430069 4.435370,223.719696 5.909439,224.779953 
	C9.218759,227.160248 12.790978,228.494949 16.916569,229.054504 
	C23.130875,229.897369 28.179939,233.143066 31.321447,238.722366 
	C35.208004,245.624908 40.513103,250.886597 47.917503,253.845032 
	C50.101078,254.717484 51.407383,256.140564 52.219807,258.337128 
	C54.328415,264.038208 57.697624,269.010406 62.101875,273.131378 
	C64.540733,275.413391 65.383705,277.836456 65.314674,281.064636 
	C65.190651,286.864410 64.708771,292.716400 67.082756,298.318848 
	C68.205589,300.968658 69.580116,303.417908 71.436737,305.557281 
	C76.972862,311.936646 86.704201,310.912415 90.741096,303.478546 
	C93.037254,299.250275 94.677986,294.665771 100.367805,293.619415 
	C105.436127,292.687378 109.023125,293.825745 112.065155,298.109100 
	C112.929886,299.326660 113.695320,300.607483 114.436760,301.914398 
	C116.546951,305.634033 120.079491,307.997162 124.049072,308.407013 
	C132.111435,309.239380 140.247986,308.777649 148.503815,308.161377 
	C143.235107,302.561737 139.523483,294.970337 129.881897,296.254150 
	C126.978775,296.640717 124.762894,294.656281 123.557137,292.119049 
	C117.038406,278.401917 96.979950,276.365875 84.975227,287.838440 
	C83.527557,289.221924 82.193787,291.125092 79.919296,290.031494 
	C77.808266,289.016510 77.804901,286.762085 77.925522,284.751312 
	C78.210121,280.006805 79.326950,275.546234 82.826057,272.017944 
	C83.874657,270.960602 84.907799,269.884644 85.465988,268.471252 
	C84.910286,266.943359 83.574638,267.314331 82.505554,267.235992 
	C69.753403,266.301483 62.920979,258.722656 64.161407,246.252441 
	C64.505997,242.788254 63.246147,241.984222 60.434673,242.252670 
	C51.705040,243.086212 45.787178,239.227798 41.851883,231.623978 
	C40.075184,228.190994 37.246895,225.546616 34.391235,222.966187 
	C33.277458,221.959763 32.236790,220.696594 32.925766,219.029953 
	C33.575779,217.457550 35.052650,217.055573 36.615887,216.923035 
	C39.443394,216.683334 42.276840,216.762497 45.108002,216.761505 
	C61.435074,216.755798 77.780350,217.209503 94.081268,216.561890 
	C101.828667,216.254120 106.571632,220.072998 111.182198,224.935425 
	C130.847794,245.675293 151.855896,265.058136 172.042847,285.270844 
	C182.869888,296.111725 193.432983,307.223175 204.730026,317.591095 
	C206.263748,318.998657 207.271454,320.691010 206.459747,323.264893 
	C203.928574,325.884308 200.939911,325.217834 198.192184,325.226593 
	C172.528931,325.308380 146.864563,325.374786 121.202629,325.183075 
	C115.789978,325.142670 111.797935,326.759125 107.976875,330.640045 
	C89.036919,349.876495 69.879723,368.899475 50.762833,387.961273 
	C47.453354,391.261169 45.105869,394.755829 45.255058,399.746857 
	C45.491665,407.662659 50.226021,411.973846 58.230698,411.050140 
	C61.267567,410.699707 64.047867,409.592621 66.482162,407.726654 
	C71.948158,403.536835 77.874512,401.903717 84.759354,403.622711 
	C92.364540,405.521576 99.953186,405.170715 107.335320,402.277496 
	C109.130234,401.574036 110.937683,401.660309 112.684357,402.445374 
	C118.092079,404.876038 123.736572,406.109497 129.674530,405.764618 
	C133.495850,405.542633 136.284515,407.087463 138.700439,410.047241 
	C143.196243,415.555176 148.607346,419.708771 155.712402,421.672424 
	C161.270111,423.208435 165.964294,422.540985 169.876587,418.312836 
	C173.664291,414.219360 173.301498,409.501556 171.235733,404.780334 
	C169.435074,400.665070 169.316254,396.805450 171.999329,392.972137 
	C174.667694,389.159790 178.326019,387.156982 182.732376,388.424255 
	C193.073441,391.398376 200.954773,387.990021 207.476807,380.045654 
	C210.198334,376.730652 213.933929,374.314117 216.239105,370.532227 
	C209.392914,367.584045 200.213882,369.021484 195.552994,373.720764 
	C193.384308,375.907288 190.973282,376.798462 187.869675,376.014923 
	C170.869354,371.723083 157.363205,384.521667 157.184250,399.851288 
	C157.159225,401.993744 157.186996,404.466125 154.563797,405.245667 
	C152.092651,405.980042 150.491440,404.173767 149.073364,402.542969 
	C145.917068,398.913208 144.199417,394.653931 143.905518,389.833282 
	C143.827896,388.559998 144.144104,387.187439 143.050629,385.787231 
	C140.070511,387.775696 138.041824,390.815979 134.645966,391.913940 
	C126.784157,394.455811 119.766701,393.363861 114.240936,386.865601 
	C111.720695,383.901794 110.016541,383.087677 106.891052,386.509521 
	C101.891426,391.983307 95.224136,393.355835 88.095337,391.593689 
	C84.994522,390.827179 81.931297,390.277222 78.744942,390.207275 
	C76.444893,390.156769 73.753723,390.431732 72.637390,387.808167 
	C71.431084,384.973206 73.624619,383.043396 75.321709,381.331970 
	C81.650711,374.949585 87.902939,368.490814 94.271454,362.148376 
	C100.761299,355.685089 107.310104,349.278931 113.675064,342.693939 
	C116.867752,339.390869 120.505913,338.015167 125.146591,337.650360 
	C148.779892,335.792267 172.439285,336.761536 196.075562,336.858704 
	C216.902573,336.944336 237.684067,335.531250 258.499573,335.762726 
	C261.276337,335.793579 264.206207,335.207306 267.004395,337.331909 
	C268.300842,340.121796 266.844574,341.791412 265.303833,343.351166 
	C253.059723,355.746460 240.978348,368.301819 228.540863,380.507416 
	C221.326584,387.587219 214.299454,394.856812 207.071548,401.925751 
	C204.349426,404.587982 203.202759,407.840393 203.217712,411.806091 
	C203.323822,439.945984 203.296722,468.086609 203.250305,496.226837 
	C203.242859,500.748444 204.276154,504.789856 207.188385,508.277618 
	C208.182571,509.468170 209.020142,510.668793 208.235062,512.664673 
z"/>
<path fill="#000000" opacity="1.000000" stroke="none" 
	d="
M1.333903,208.238831 
	C1.000000,140.393173 1.042578,72.786247 0.887157,5.179783 
	C0.878448,1.391498 1.890814,0.913536 5.313050,0.917288 
	C99.562843,1.020609 193.812775,1.000000 288.531342,1.000000 
	C290.335632,2.601467 289.871338,4.219913 288.700806,5.524649 
	C286.235504,8.272559 285.387329,11.529960 284.852509,15.073180 
	C283.657257,22.992178 279.365997,28.907024 272.410065,32.810978 
	C266.480560,36.138866 262.416382,40.994858 260.044067,47.305153 
	C258.975525,50.147469 257.098907,52.151230 254.199585,53.015327 
	C249.085098,54.539616 244.859222,57.461407 241.407639,61.394844 
	C238.751389,64.421921 235.737061,65.621513 231.722321,65.302338 
	C225.186844,64.782761 218.794937,65.394836 212.731216,68.372009 
	C207.593811,70.894371 203.624634,74.398964 203.570328,80.356148 
	C203.517120,86.190163 206.511566,90.236679 212.330475,92.338127 
	C217.240646,94.111397 220.239594,98.036751 220.474655,103.336708 
	C220.687622,108.138161 217.982758,111.390190 213.711594,113.500443 
	C207.199524,116.717850 204.351303,122.241577 204.286743,129.312256 
	C204.226746,135.882202 204.104599,142.461945 204.983627,149.165848 
	C210.755417,144.118561 217.949066,140.356644 216.910751,131.034790 
	C216.568695,127.963737 218.153809,125.545761 220.945374,124.124939 
	C236.010010,116.457497 235.164642,95.868156 226.715271,86.546646 
	C226.155640,85.929253 225.597595,85.310318 225.018387,84.711639 
	C223.811386,83.464088 222.778702,82.094810 223.572098,80.277542 
	C224.429596,78.313400 226.257034,77.934296 228.170776,77.948608 
	C233.394684,77.987663 237.872025,79.956924 241.816284,83.291473 
	C242.942123,84.243271 243.765900,85.585831 245.720261,86.173111 
	C246.503235,83.652390 245.845261,81.004539 246.501022,78.496147 
	C248.958801,69.094696 256.212921,63.220470 265.825317,64.035103 
	C269.851135,64.376289 271.277710,63.566849 270.846680,59.486271 
	C270.095306,52.372082 273.620422,47.426991 279.325256,43.692635 
	C283.503113,40.957817 287.608978,38.148727 290.653687,34.046906 
	C291.627350,32.735226 292.920898,31.283823 294.815460,31.910152 
	C296.907318,32.601707 297.115204,34.615490 297.129883,36.473518 
	C297.294434,57.302277 297.321198,78.131081 297.135498,98.960220 
	C297.103851,102.515121 294.937897,104.775291 292.691071,107.024689 
	C279.737213,119.993454 266.337677,132.549728 253.916718,146.010498 
	C235.152115,166.345932 214.691360,184.990784 195.903580,205.282349 
	C194.591263,206.699707 193.194016,207.740204 190.792755,207.291840 
	C188.085190,204.818253 188.783737,201.818832 188.774841,199.079285 
	C188.691528,173.428299 188.624649,147.776169 188.817795,122.126503 
	C188.858383,116.735291 187.323715,112.733566 183.419327,108.911140 
	C163.798111,89.701874 144.611282,70.054199 125.249969,50.582329 
	C123.048820,48.368607 120.755333,46.118271 117.402115,45.510330 
	C111.255783,44.396004 106.930786,45.798470 104.199028,50.208130 
	C101.139969,55.146122 101.666153,60.166950 104.842949,64.752769 
	C107.235672,68.206749 109.452446,71.638718 110.532936,75.754166 
	C111.098434,77.908073 111.329926,80.056442 110.771370,82.162102 
	C108.544937,90.555496 108.212082,98.855148 111.433441,107.103897 
	C112.325005,109.386887 111.754669,111.581192 110.939407,113.880066 
	C108.886383,119.669189 106.761963,125.470818 107.678780,131.855057 
	C108.100578,134.792206 106.329170,136.753754 104.174759,138.591507 
	C98.378723,143.535599 93.707573,149.258087 91.990601,156.976196 
	C89.493370,168.201660 96.910782,175.287003 107.899681,172.136169 
	C109.806152,171.589539 111.727074,171.017776 113.751572,170.915833 
	C121.868179,170.507126 127.445732,177.017624 125.265114,184.842224 
	C123.021805,192.891739 124.843918,199.525238 130.831635,205.283752 
	C134.427353,208.741837 137.960419,212.280304 141.319962,215.979904 
	C141.888382,216.605850 142.602463,217.239349 143.462372,217.047943 
	C144.706985,216.770920 144.677277,215.585098 144.669189,214.620087 
	C144.610138,207.592010 146.233078,200.218140 139.398209,194.841415 
	C136.334213,192.431122 137.427612,188.696991 138.002319,185.446960 
	C139.237717,178.460602 137.659836,172.170334 133.243210,166.740845 
	C129.106155,161.655014 123.838585,158.378067 117.007889,158.286575 
	C116.508270,158.279877 116.005615,158.295258 115.509750,158.245773 
	C112.791344,157.974472 109.307243,158.817642 108.371399,155.188629 
	C107.459633,151.652924 110.351982,149.745560 112.838600,148.110474 
	C117.070427,145.327820 121.848427,143.965179 126.983353,143.684250 
	C126.957077,141.642258 125.569427,140.582153 124.627495,139.318939 
	C118.609016,131.247589 119.051796,121.970238 126.427986,115.038239 
	C129.687469,111.975029 130.111176,110.194290 126.735710,106.835518 
	C121.865753,101.989662 120.237465,95.846497 121.990112,88.917641 
	C122.923393,85.228035 123.559860,81.420868 123.159767,77.566750 
	C122.925865,75.313614 122.843208,72.988075 125.160614,71.895691 
	C127.547737,70.770439 129.232147,72.591171 130.778152,74.112999 
	C142.885727,86.031349 154.469986,98.506256 166.997238,109.960022 
	C174.153610,116.503166 176.656982,123.554855 176.474091,133.139465 
	C175.914871,162.444458 176.449783,191.768524 176.188309,221.081848 
	C176.073868,233.913193 177.889938,246.664597 177.248550,259.490692 
	C177.125839,261.944702 177.643234,264.530090 175.675049,266.994629 
	C171.878098,268.520294 170.157272,265.814178 168.230942,263.903900 
	C150.257492,246.080093 132.297333,228.240250 114.577133,210.166763 
	C110.381775,205.887756 106.032578,204.110992 100.072807,204.165771 
	C73.762543,204.407608 47.448719,204.292587 21.136269,204.253052 
	C15.426651,204.244476 9.779672,204.210297 4.989804,208.072906 
	C4.054905,208.826813 2.850775,208.958389 1.333903,208.238831 
z"/>
<path fill="#088F43" opacity="1.000000" stroke="none" 
	d="
M208.466858,513.000000 
	C208.394943,512.018005 207.819305,511.496979 207.102081,510.985626 
	C202.703812,507.849731 200.965012,503.505249 200.974319,498.181824 
	C201.025009,469.227173 201.161346,440.270569 200.842072,411.319336 
	C200.786819,406.309113 202.585556,402.943848 205.806046,399.766907 
	C220.011612,385.753540 234.442001,371.957886 248.319016,357.626404 
	C254.432602,351.312592 260.761749,345.199615 266.873962,338.439819 
	C267.388580,335.727203 269.585876,334.788330 271.076172,333.346558 
	C277.840424,326.802551 284.012085,319.635803 291.501617,313.848206 
	C292.963501,312.718536 294.044678,311.251953 294.596069,309.040466 
	C301.777588,300.022552 309.993652,292.221985 314.218018,281.466705 
	C316.345978,276.048828 317.704987,270.489441 318.840851,264.821808 
	C319.258575,262.737610 319.375031,259.776031 323.279358,261.776062 
	C324.962219,267.526062 324.217468,273.033691 324.306549,278.491150 
	C324.423096,285.636444 324.429382,292.786835 324.271484,299.932587 
	C324.221222,302.209747 324.552277,304.651367 322.262451,306.763306 
	C306.212952,322.839508 290.579651,338.664825 274.979736,354.523041 
	C256.816528,372.987030 238.695190,391.492188 220.513947,409.938385 
	C218.922501,411.553009 217.941513,413.127197 217.951492,415.553894 
	C218.040634,437.206726 218.003418,458.860046 218.003418,481.328400 
	C222.063782,475.699707 226.755890,471.840332 232.025894,468.535583 
	C239.332520,463.953705 241.204086,458.927063 239.328476,450.316010 
	C239.003876,448.825806 238.852936,447.373901 239.369736,445.633270 
	C240.284927,445.946930 241.211243,446.153229 242.035889,446.563812 
	C253.535431,452.288818 266.837616,440.297913 264.123840,428.799316 
	C263.777740,427.332825 262.342804,425.154816 265.353699,423.778839 
	C268.439362,422.368652 268.598175,424.797821 269.735474,426.170776 
	C274.482605,431.901672 280.331390,434.985138 288.784943,433.623779 
	C285.143524,429.534821 281.139465,426.089813 279.642120,421.132233 
	C275.683960,408.027466 276.936401,394.690826 290.532959,388.109467 
	C292.999512,386.915527 293.279694,385.232452 292.970490,383.354706 
	C291.960846,377.222992 294.791229,373.135223 299.111481,369.213867 
	C302.754822,365.906921 305.665314,361.792633 308.900177,358.035675 
	C309.600708,358.436920 310.301239,358.838165 311.001770,359.239380 
	C311.001770,367.101898 310.991333,374.964417 311.006653,382.826874 
	C311.013153,386.147430 310.475128,389.247986 309.452271,392.513550 
	C307.895691,397.483185 304.594025,400.735779 300.453033,402.517120 
	C296.211945,404.341522 294.350220,407.477692 294.362396,411.144714 
	C294.376038,415.262115 297.184448,418.186584 301.387695,419.763123 
	C308.856232,422.564423 311.001038,425.985168 311.000244,433.872803 
	C310.999573,440.354645 307.018707,445.458832 300.911499,448.003876 
	C294.301971,450.758240 287.523773,451.599396 280.531769,450.941742 
	C277.669678,450.672546 275.783447,451.390137 273.774506,453.565094 
	C269.620758,458.061981 265.048126,462.108887 258.617920,463.296509 
	C255.811691,463.814850 255.022781,466.575592 254.151718,468.840088 
	C251.821426,474.898163 247.893311,479.989929 242.274948,482.672150 
	C235.277573,486.012604 231.648346,491.360138 230.466812,498.360962 
	C229.543457,503.832001 227.502716,508.386108 223.873535,512.653381 
	C218.977905,513.000000 213.955811,513.000000 208.466858,513.000000 
z"/>
<path fill="#088F43" opacity="1.000000" stroke="none" 
	d="
M1.000000,208.466858 
	C8.076463,201.071411 16.989279,201.930649 25.805660,201.964676 
	C51.928848,202.065536 78.053146,202.077499 104.175735,201.916534 
	C108.003525,201.892929 110.668404,203.085510 113.315826,205.754318 
	C133.571167,226.173126 153.952148,246.467270 174.579315,266.972198 
	C176.786621,267.241608 177.602356,268.862976 178.697281,270.025665 
	C185.931442,277.707550 194.064133,284.530853 200.548203,292.933350 
	C201.560944,294.245758 202.957321,295.187653 204.977737,295.731689 
	C213.069000,302.545105 220.466675,309.614929 229.831543,314.210938 
	C235.580185,317.032196 241.868530,317.732880 247.772675,319.825500 
	C249.690460,320.505219 252.462708,320.795807 250.179321,324.317261 
	C242.093170,326.100281 234.277969,325.083923 226.504120,325.309540 
	C221.694946,325.449158 216.875198,325.434937 212.064117,325.248657 
	C210.103271,325.172760 208.025177,325.328339 206.236267,323.267151 
	C202.331970,317.768738 197.430115,313.889099 193.030792,309.540222 
	C174.969818,291.686371 157.266235,273.477142 138.720184,256.103058 
	C127.016434,245.138870 116.155769,233.276581 104.851364,221.882172 
	C103.257706,220.275833 101.483536,218.943451 98.848106,218.954071 
	C77.362122,219.040756 55.875633,219.002838 33.088444,219.002838 
	C39.769512,223.822083 43.164204,230.002350 47.320995,235.621506 
	C51.438770,241.187866 57.996170,240.703094 63.853691,239.738495 
	C68.144646,239.031876 68.483604,239.770126 67.302116,243.540573 
	C64.313560,253.077911 67.235733,259.219757 76.101784,263.884125 
	C79.361389,265.598969 82.579529,264.836517 85.821861,264.836151 
	C87.190353,264.835968 88.699829,263.439240 89.626167,265.483124 
	C90.524155,267.464447 89.722893,269.042572 88.123520,270.271820 
	C84.250969,273.248077 81.343483,276.765015 80.405983,281.798737 
	C79.942238,284.288727 80.163719,286.628693 79.981789,290.034668 
	C86.721596,281.450256 94.856529,277.663239 104.550308,278.097382 
	C113.190536,278.484375 120.772369,281.651947 124.861679,289.952026 
	C126.464447,293.205139 128.121307,294.958832 132.009689,294.218903 
	C136.654312,293.335083 140.242249,295.306396 143.412598,298.816162 
	C146.917282,302.696075 150.926590,306.120178 154.716110,309.742798 
	C154.464462,310.151184 154.212799,310.559601 153.961151,310.967987 
	C143.534271,310.967987 133.051834,311.592224 122.706963,310.671204 
	C118.361694,310.284363 114.039268,307.093811 111.907295,302.234955 
	C109.045563,295.712921 105.628220,294.092194 99.494690,296.090240 
	C97.324577,296.797150 95.711517,297.910614 94.827919,300.541687 
	C92.062134,308.777191 87.486984,311.869354 80.183434,312.058380 
	C72.566643,312.255524 68.102219,306.435791 65.061340,299.771820 
	C63.021564,295.301697 62.322330,290.466949 63.088734,285.692017 
	C64.097557,279.406708 61.554752,275.008667 57.118137,271.010162 
	C53.524273,267.771240 51.538841,263.387970 50.071697,258.842499 
	C49.670536,257.599609 49.898563,256.443176 48.058098,255.986572 
	C39.118946,253.768799 33.687756,247.395172 29.324797,239.784241 
	C26.428797,234.732346 21.768591,231.540512 16.208710,231.217636 
	C9.983942,230.856125 5.756824,227.763870 1.347430,223.892975 
	C1.000000,218.977905 1.000000,213.955811 1.000000,208.466858 
z"/>
<path fill="#088F43" opacity="1.000000" stroke="none" 
	d="
M513.000000,303.539368 
	C510.939148,303.356903 510.242371,305.520630 509.719543,306.344757 
	C506.603485,311.256805 501.916901,312.000122 496.793671,312.000000 
	C467.175964,311.999298 437.558197,311.965607 407.940735,312.050995 
	C404.913910,312.059723 402.718994,311.283844 400.506256,309.054932 
	C379.994293,288.392548 359.345581,267.865936 338.449646,247.144913 
	C337.320496,246.907700 336.463104,246.713135 335.926941,246.056305 
	C328.917236,237.468491 319.938354,230.739792 313.176270,221.911530 
	C311.677063,219.954193 309.955200,218.109268 307.043854,217.313812 
	C302.306152,214.444336 298.957123,210.463745 294.881653,207.328766 
	C287.543396,201.684006 279.558380,197.582932 270.438873,195.745514 
	C268.337219,195.322052 266.197632,194.892120 264.238251,193.967453 
	C262.548462,193.170013 260.712219,192.317871 262.814301,189.686798 
	C273.565765,187.795593 284.031036,188.922531 294.462006,188.735703 
	C298.166748,188.669342 302.135376,187.764664 305.764038,190.737015 
	C328.844818,213.792374 351.677704,236.429901 374.540314,259.037415 
	C386.058136,270.426727 397.642822,281.748413 409.156219,293.142151 
	C410.249603,294.224182 411.229553,295.023315 412.913147,295.019409 
	C434.568481,294.969452 456.223907,294.986420 479.400146,294.986420 
	C475.579956,291.761353 472.483368,289.462708 470.570129,286.118958 
	C469.191010,283.708679 467.832977,281.204529 466.010101,279.145447 
	C460.888550,273.360199 454.136108,273.273315 447.211731,274.446960 
	C446.209198,274.616852 445.344879,275.027863 444.157318,274.204407 
	C445.926910,269.600586 448.586884,265.004456 445.920563,259.716064 
	C441.996368,251.932846 435.903503,248.170258 427.131042,249.016891 
	C425.349548,249.188828 423.365540,249.864319 422.346436,247.678696 
	C421.133148,245.076553 423.785187,244.665482 425.003143,243.674988 
	C431.006653,238.792679 433.255432,232.470016 432.901459,224.615097 
	C429.815247,225.435196 429.580475,228.510406 427.615692,229.936295 
	C414.544128,239.422775 394.487396,238.653809 386.864227,221.873825 
	C386.135559,220.269882 385.094238,219.282455 382.975647,219.705261 
	C376.803680,220.937012 372.145721,218.529877 368.137268,213.782333 
	C365.199799,210.303223 361.550720,207.424942 358.218781,204.278885 
	C358.472961,203.872162 358.727173,203.465439 358.981354,203.058716 
	C369.074036,203.058716 379.214081,202.488846 389.237518,203.322098 
	C393.620636,203.686478 398.188782,205.933502 400.296173,211.243713 
	C402.941803,217.910278 407.085724,219.559753 413.137054,218.076157 
	C416.767303,217.186142 417.388763,214.115616 418.700043,211.595078 
	C423.273376,202.804138 428.111176,200.588791 437.719574,202.945023 
	C441.696869,203.920349 443.631897,206.938690 445.479034,210.063324 
	C449.879486,217.507202 450.790009,225.703583 449.854858,234.066711 
	C449.563049,236.676453 450.267273,238.220200 452.127136,239.511444 
	C457.373749,243.153915 460.334686,248.293442 462.011780,254.296707 
	C462.457458,255.891907 462.736816,257.389160 464.737915,258.002228 
	C473.288483,260.621948 479.153503,266.464539 483.395264,274.097046 
	C486.679260,280.006165 491.895020,282.759003 498.382080,282.940338 
	C505.108368,283.128326 508.383942,288.055817 512.654175,292.105835 
	C513.000000,295.692902 513.000000,299.385834 513.000000,303.539368 
z"/>
<path fill="#088F43" opacity="1.000000" stroke="none" 
	d="
M190.690979,207.107651 
	C209.497498,186.823929 229.750946,168.534256 248.281952,148.531479 
	C262.184326,133.524933 277.042572,119.399757 291.599945,105.008293 
	C294.030396,102.605522 295.101471,100.208977 295.076294,96.745186 
	C294.922791,75.612206 294.999573,54.477554 294.999573,32.024700 
	C290.724091,38.926685 285.221924,42.737167 279.451141,46.324017 
	C273.046906,50.304638 272.082428,56.566814 273.297638,63.361835 
	C273.616547,65.145058 274.411499,66.786827 273.393982,68.555428 
	C262.748230,63.109756 255.176651,67.305611 251.007233,73.596718 
	C248.818710,76.898888 247.426544,80.478989 248.722443,84.757523 
	C249.314529,86.712379 250.055527,89.410606 246.899170,90.624107 
	C243.854507,91.794670 243.920929,89.040756 242.813080,87.644836 
	C238.122742,81.734970 231.918137,79.613632 223.466095,80.231102 
	C225.755951,82.414375 227.499527,83.803627 228.915436,85.471107 
	C238.085281,96.270401 238.280090,119.175919 221.236893,126.385735 
	C219.728806,127.023697 218.645035,128.009476 219.031693,129.774750 
	C220.882736,138.225754 216.096161,143.486023 210.238281,148.241058 
	C207.719727,150.285446 205.570160,155.136658 202.999420,154.080765 
	C200.415207,153.019348 201.997726,148.056793 202.088913,144.863037 
	C202.296600,137.589432 201.237762,130.305984 202.818924,123.021278 
	C204.082520,117.199623 207.914352,113.527267 212.683365,111.372406 
	C216.476868,109.658333 218.674545,106.924026 218.516907,103.688828 
	C218.305801,99.356224 215.770157,95.592270 211.065109,94.114059 
	C205.145142,92.254158 201.394211,87.658089 201.052490,81.530251 
	C200.706787,75.330818 203.776291,70.832176 208.838547,67.708656 
	C216.357086,63.069561 224.723801,62.290359 233.288498,63.071423 
	C235.647949,63.286587 237.163666,62.634380 238.759689,60.874443 
	C243.011154,56.186359 247.597565,51.914955 254.265381,50.789528 
	C256.405182,50.428364 257.381409,48.641300 257.976440,46.574429 
	C259.889008,39.931084 264.129700,34.810139 270.015503,31.640854 
	C278.072998,27.302189 282.396057,20.887781 282.929382,11.976378 
	C283.212799,7.241088 286.944000,4.995952 289.115295,1.347210 
	C294.022095,1.000000 299.044189,1.000000 304.533142,1.000000 
	C304.957703,1.312220 304.772919,1.821177 304.893524,1.908524 
	C311.901642,6.984342 311.058014,14.407758 311.033691,21.707546 
	C310.947388,47.644592 310.542450,73.594757 311.259613,99.512245 
	C311.495972,108.052940 308.260651,113.426750 302.608521,118.883560 
	C289.476257,131.561981 276.737823,144.648605 263.854553,157.584518 
	C258.001038,163.461960 252.182632,169.374405 246.206360,175.567169 
	C245.768738,178.149475 243.641891,178.911530 242.292053,180.285355 
	C234.740524,187.971115 227.188843,195.660278 218.970154,203.128799 
	C218.724304,203.645248 218.636383,203.856842 218.450500,204.400803 
	C218.253891,204.942932 218.155228,205.152725 217.876068,205.661072 
	C217.560776,206.149994 217.425980,206.340363 217.071838,206.804382 
	C216.537033,207.433823 216.189285,207.755096 215.556732,208.302277 
	C211.780243,213.350357 207.117645,217.158142 203.940292,222.288422 
	C199.084793,230.128265 195.847900,238.519394 194.081772,247.533371 
	C193.660233,249.684830 193.219574,252.016495 189.669479,250.668503 
	C187.759491,248.817703 187.819427,246.752960 187.782135,244.779800 
	C187.584106,234.300735 187.597778,223.819901 187.771835,213.340805 
	C187.809982,211.044525 187.697510,208.573822 190.690979,207.107651 
z"/>
<path fill="#F0BF00" opacity="1.000000" stroke="none" 
	d="
M217.264557,204.317047 
	C216.194595,202.797943 217.344009,202.259308 217.950134,201.648560 
	C225.796188,193.742752 233.687195,185.881561 241.539474,177.981873 
	C242.616608,176.898254 243.609680,175.789658 245.698364,175.936401 
	C259.846985,176.280029 273.605316,175.379700 287.371124,175.154587 
	C316.354736,174.680634 345.351379,174.977875 374.342621,175.020935 
	C379.961456,175.029282 385.497742,174.071930 391.101654,173.806931 
	C396.344574,173.559006 398.537842,168.054047 401.944733,164.799179 
	C411.820679,155.363907 421.551941,145.761917 430.977142,135.879318 
	C433.829163,132.888855 437.356567,130.471420 439.525818,126.513664 
	C438.173035,125.429932 436.486877,126.090187 434.974304,126.030342 
	C430.893616,125.868889 426.951202,125.958687 422.886566,124.403542 
	C416.845917,122.092392 409.117462,125.729530 405.040527,131.798416 
	C404.083130,133.223587 403.141205,134.659180 401.921021,136.498764 
	C399.671783,132.130173 397.454498,128.575104 393.652374,125.843758 
	C387.200226,121.208725 376.184509,122.928749 372.433075,129.848145 
	C371.530762,131.512405 370.436737,134.004074 367.656830,132.819305 
	C365.222534,131.781845 365.847015,129.396210 366.074493,127.544456 
	C366.968384,120.267212 364.670990,114.537331 357.948608,109.073158 
	C358.675293,116.910133 357.447327,123.937469 352.947144,129.892822 
	C344.918518,140.517609 335.842010,143.446976 323.688354,139.680557 
	C320.266876,138.620239 319.276306,141.313187 318.623566,142.300430 
	C315.934998,146.366699 312.433807,147.279694 307.970734,147.055588 
	C303.150940,146.813583 298.309540,146.979233 293.477753,147.005127 
	C290.745605,147.019760 289.869568,145.573929 291.800293,143.797638 
	C298.309265,137.809296 303.758575,130.689972 311.015625,125.523270 
	C316.396393,121.692406 322.464233,120.827759 328.593781,123.136192 
	C332.726135,124.692482 335.366272,123.433823 338.134430,120.490311 
	C341.026825,117.414703 340.502228,114.044228 339.310394,110.837158 
	C337.038177,104.723091 336.627258,98.525703 341.094177,93.736122 
	C345.673706,88.825790 351.833374,87.998581 358.603485,90.060043 
	C366.549835,92.479675 371.878906,98.025955 377.080170,103.833626 
	C378.391724,105.298096 379.403656,106.151627 381.449432,106.046432 
	C388.714417,105.672905 395.915283,105.825577 402.094818,110.538963 
	C402.669861,110.977577 403.198792,111.048042 403.865021,110.581543 
	C412.088287,104.823425 421.273834,106.700348 429.957672,108.254951 
	C436.154175,109.364265 440.887665,107.769135 445.200317,104.197350 
	C452.643799,98.032494 464.367462,99.543739 468.549347,107.009972 
	C471.180054,111.706833 470.553986,120.928383 466.533997,124.961761 
	C445.139801,146.427002 423.629852,167.776978 402.273895,189.280014 
	C400.418121,191.148621 398.506104,190.993073 396.401978,190.994232 
	C366.577454,191.010712 336.752899,191.014999 306.463989,191.094757 
	C291.627716,191.097122 277.255829,191.026993 262.418091,191.036011 
	C261.130554,192.594833 259.753967,192.995346 258.190155,193.134583 
	C245.660568,194.250244 233.651016,197.098450 222.738922,203.686829 
	C221.197479,204.617508 219.503281,205.510056 217.264557,204.317047 
z"/>
<path fill="#F0BF00" opacity="1.000000" stroke="none" 
	d="
M307.856262,216.246460 
	C315.294769,220.947998 320.712341,227.721878 326.792450,233.775208 
	C330.746185,237.711563 335.553711,240.973404 338.066895,246.648987 
	C338.108917,278.969360 338.047028,310.948792 338.004791,342.928223 
	C337.984558,358.253387 337.994354,373.578613 338.011475,388.903809 
	C338.013458,390.675903 337.757233,392.383270 339.329010,393.945526 
	C354.986755,409.508240 370.561279,425.154694 386.890747,441.510101 
	C387.152710,434.133484 387.243469,427.730743 388.767273,421.317474 
	C390.253357,415.062958 386.907043,409.608124 381.332916,406.114166 
	C376.113617,402.842621 376.036926,402.938202 381.651703,399.711670 
	C387.173950,396.538361 390.156158,392.056885 390.078430,385.420410 
	C390.013733,379.893250 387.130005,376.193451 383.188141,373.120361 
	C381.578583,371.865570 379.351196,370.949768 380.208984,368.704163 
	C381.192108,366.130280 383.690918,366.857727 385.804443,367.381042 
	C391.358063,368.756195 401.259857,363.677032 403.459930,358.013000 
	C396.065613,358.041260 388.968842,358.372803 382.497406,353.349213 
	C373.652954,346.483551 370.030823,336.207306 372.709137,325.798065 
	C373.288055,323.548035 373.864319,321.469604 371.380707,319.866425 
	C366.503448,316.718201 365.409271,312.086700 365.920258,306.558136 
	C366.317169,302.263733 365.977295,297.903137 366.024261,293.572601 
	C366.032532,292.809540 366.078308,291.718323 366.550385,291.354919 
	C367.649902,290.508514 368.329132,291.760376 368.957825,292.386871 
	C374.957184,298.365326 381.215454,304.122772 386.786438,310.480713 
	C391.686432,316.072937 391.489014,323.008667 390.023926,329.970795 
	C388.221985,338.533478 393.165497,342.779633 401.677307,340.070923 
	C406.483643,338.541443 410.931519,337.481415 416.164673,339.838989 
	C423.575592,343.177673 425.801697,353.389557 422.058594,361.864410 
	C419.128876,368.497650 414.709259,373.900452 408.787140,377.970825 
	C407.036469,379.174072 406.716675,380.568420 407.054871,382.162659 
	C408.581360,389.357819 406.106506,395.806152 403.405060,402.170197 
	C401.875488,405.773560 404.605377,408.480713 405.283966,411.474854 
	C406.842010,418.349487 405.917206,424.977448 404.636597,431.475159 
	C403.720978,436.120667 404.653870,439.675903 406.926453,443.428986 
	C409.077728,446.981720 412.438293,449.939209 412.967834,454.327667 
	C414.030609,463.135284 410.136871,467.591492 404.667786,470.562866 
	C399.838013,473.186920 390.497253,470.142792 386.043732,465.595123 
	C374.557281,453.865967 362.854858,442.348694 351.311096,430.675232 
	C342.320312,421.583405 333.580780,412.237122 324.407043,403.336426 
	C322.133087,401.130157 322.005707,398.954102 322.004242,396.381134 
	C321.987488,366.896881 321.983704,337.412659 321.903961,307.464020 
	C322.998352,292.033417 322.547546,277.059845 321.940369,261.637512 
	C318.746429,258.593811 319.326385,254.744751 318.972107,251.452545 
	C317.862976,241.146057 314.543091,231.713806 309.152527,222.932678 
	C307.951538,220.976242 306.342377,219.084229 307.856262,216.246460 
z"/>
<path fill="#F0BF00" opacity="1.000000" stroke="none" 
	d="
M205.535065,322.908203 
	C220.567322,322.906677 235.135178,322.976013 250.137085,322.957947 
	C251.545258,321.638062 252.779816,320.990936 254.383545,320.868256 
	C267.413971,319.871429 279.801605,316.752655 290.989624,309.694275 
	C292.321198,308.854218 293.784882,308.735779 295.550293,309.700012 
	C295.666687,310.609619 295.684113,311.411560 295.291809,311.808868 
	C286.900146,320.306915 278.475616,328.772736 270.001862,337.188812 
	C269.486206,337.700958 268.509094,337.748566 267.391968,338.084106 
	C253.255478,337.669891 239.500473,338.595001 225.734558,338.840668 
	C199.909882,339.301544 174.069733,339.161133 148.239655,338.905151 
	C139.606293,338.819580 131.078369,340.176239 122.474594,339.959656 
	C119.107338,339.874847 117.310471,342.417023 115.436813,344.292511 
	C101.833061,357.909668 88.437195,371.734406 74.952286,385.470612 
	C74.421852,386.010925 73.656044,386.320160 73.027740,386.719360 
	C73.223625,387.207336 73.354240,387.769836 73.461243,387.765411 
	C80.083931,387.489655 86.479858,389.240143 92.984352,389.860687 
	C99.509712,390.483215 104.722275,387.387024 107.788155,381.438660 
	C108.596710,379.869904 109.487289,378.168274 111.061874,378.279419 
	C112.231941,378.362000 112.458801,380.489227 113.101784,381.715546 
	C118.274635,391.581299 132.391205,395.124298 139.505875,384.960297 
	C140.068268,384.156860 141.236588,383.679626 141.568573,382.833191 
	C142.262817,381.063049 143.076202,380.645508 144.903305,381.378510 
	C146.825958,382.149841 147.475967,383.479980 146.960205,385.207520 
	C144.478638,393.519684 148.627426,399.284485 154.481247,405.008270 
	C155.849625,399.877289 154.887207,394.919617 156.704727,389.997314 
	C161.731064,376.384796 176.606033,369.426575 189.641785,374.391846 
	C192.725494,375.566437 193.329620,372.862366 193.804398,372.095215 
	C196.545441,367.666321 200.382553,366.713196 205.171555,366.939606 
	C210.649399,367.198608 216.148895,366.999603 221.819595,366.999603 
	C221.722122,371.198822 218.208130,372.534302 216.017166,374.701233 
	C212.133438,378.542236 208.499054,382.615051 204.503036,386.371124 
	C198.088379,392.400574 190.848328,392.946869 183.151840,390.842316 
	C179.478348,389.837860 176.747086,390.584137 174.531799,393.096405 
	C171.737488,396.265259 171.152695,399.760956 173.316650,403.890503 
	C176.043442,409.094086 176.339264,414.408539 172.245499,419.443085 
	C168.795883,423.685516 162.334015,426.022919 157.123642,424.654846 
	C148.210510,422.314636 140.713379,417.836304 135.687820,410.005737 
	C134.267838,407.793213 132.638184,407.926392 130.765518,408.024078 
	C123.803490,408.387360 117.106232,407.592224 110.904900,404.084625 
	C110.397171,403.797455 109.910522,402.983765 108.850502,403.640015 
	C100.516487,408.799866 91.401230,407.596863 82.669769,405.712189 
	C76.621597,404.406677 72.216545,406.339447 67.925545,409.652832 
	C61.421883,414.674805 53.103081,414.616211 47.168262,410.836548 
	C41.596367,407.287994 41.639606,393.639404 46.320923,389.016113 
	C67.899788,367.704681 89.329971,346.242004 110.701408,324.722321 
	C112.554054,322.856842 114.464745,323.006287 116.572037,323.005249 
	C146.071564,322.990906 175.571106,322.986115 205.535065,322.908203 
z"/>
<path fill="#F1BF00" opacity="1.000000" stroke="none" 
	d="
M191.093079,206.535126 
	C190.860962,207.932297 190.283890,208.867966 190.293167,209.797791 
	C190.427963,223.315506 189.564056,236.846130 190.890778,250.759995 
	C193.192627,252.291748 193.115067,254.384247 193.211670,256.371796 
	C193.777466,268.011932 196.406464,279.028809 202.572220,289.096985 
	C203.889236,291.247559 205.782242,293.535309 204.150208,296.753357 
	C201.928955,296.968964 201.041748,295.389679 199.916824,294.275116 
	C192.544525,286.970795 185.215118,279.622864 177.916519,272.244873 
	C176.674454,270.989258 175.071304,269.896027 174.938751,267.487061 
	C174.223862,235.907806 173.765793,204.670486 173.980652,173.425064 
	C174.094070,156.929596 173.988846,140.432693 174.014236,123.936478 
	C174.017349,121.918541 173.856277,120.249161 172.190598,118.602158 
	C156.680984,103.266396 141.295364,87.805244 125.067520,71.573997 
	C125.075119,76.774849 125.803192,81.101936 125.219017,85.469856 
	C124.747246,88.997398 122.732971,92.194199 123.801254,96.229469 
	C125.289963,101.852806 127.437630,106.387260 133.159027,108.584389 
	C133.914749,108.874603 135.162857,108.871735 135.035049,110.406914 
	C134.879868,112.271111 133.539307,112.663345 132.206146,113.385490 
	C123.831360,117.921928 120.395882,126.910500 124.170944,134.623718 
	C125.594765,137.532867 127.705826,140.022934 130.464966,141.849960 
	C131.589218,142.594406 133.388412,142.670090 132.602951,144.923904 
	C131.791916,147.251083 129.999573,147.360947 128.276535,146.931396 
	C120.918190,145.097000 115.475098,148.561768 110.400215,153.127991 
	C109.838829,153.633102 109.146423,154.529007 109.244820,155.122650 
	C109.470306,156.483170 110.805367,155.949661 111.691734,155.976868 
	C116.611610,156.127777 121.544815,155.473923 126.254875,157.925827 
	C136.125214,163.064026 142.793060,173.721024 140.261520,185.168793 
	C139.270859,189.648636 139.279816,193.316956 143.523376,196.085724 
	C146.407883,197.967743 147.266327,200.725647 147.075882,204.203537 
	C146.784775,209.519775 147.018524,214.863785 146.978409,220.195618 
	C146.971527,221.110123 147.384979,222.305862 146.226166,222.814621 
	C144.905945,223.394226 144.477036,222.374100 143.622192,221.487457 
	C136.702438,214.310303 128.786636,208.143143 123.539551,199.321075 
	C121.012474,195.072220 121.340958,190.602829 122.413284,186.961700 
	C123.867828,182.022736 124.194000,178.227676 120.207626,174.756958 
	C116.307846,171.361649 111.821159,172.960068 108.184120,174.597015 
	C102.789581,177.024963 98.402031,175.961151 94.276840,172.640350 
	C89.301277,168.634979 87.983994,163.125458 89.440628,157.109543 
	C91.658707,147.948837 96.379562,140.437988 104.772438,135.608170 
	C105.960472,134.924500 106.266075,133.766861 105.863060,132.576523 
	C103.392952,125.280861 106.763077,118.902519 109.188110,112.467735 
	C109.909676,110.553093 109.941528,109.284302 109.180214,107.438736 
	C105.726868,99.067245 106.234749,90.567879 108.461891,81.935814 
	C109.991898,76.005714 106.792076,71.276764 103.353783,66.890678 
	C98.528717,60.735554 98.600883,52.379501 103.712860,46.779194 
	C108.164330,41.902477 117.608917,41.049873 122.966820,45.519657 
	C131.603073,52.724380 139.017426,61.218170 147.013153,69.101089 
	C157.763901,79.700142 167.951401,90.857491 179.070251,101.096970 
	C182.703247,104.442642 185.760773,108.386040 189.681580,111.507538 
	C191.429550,112.899178 191.010605,115.434555 191.009949,117.591042 
	C191.000931,147.084320 191.013535,176.577606 191.093079,206.535126 
z"/>
<path fill="#000000" opacity="1.000000" stroke="none" 
	d="
M204.007477,297.312622 
	C204.154465,294.304504 202.001343,292.481323 200.824097,290.657837 
	C193.187210,278.828735 190.808075,265.802032 190.969772,251.617447 
	C192.799637,247.286926 192.437668,242.966675 193.765152,238.885345 
	C197.295074,228.032730 202.419006,218.365250 210.837875,210.539322 
	C212.023254,209.437439 212.832855,207.931335 213.979431,206.308716 
	C214.501999,205.492783 215.113205,205.515854 215.852570,205.158325 
	C216.087585,205.005020 215.988739,204.994217 215.983109,205.043610 
	C216.195282,204.818054 216.435303,204.564301 216.897064,204.160400 
	C217.093155,203.985779 216.999115,203.947937 216.979492,203.994446 
	C220.390930,202.301361 223.847626,200.610306 227.248230,198.813126 
	C237.829483,193.221039 249.182236,191.005615 261.500092,191.048096 
	C267.379303,193.361938 273.298126,193.666153 278.852692,195.713791 
	C286.523163,198.541397 293.131775,202.797684 299.338135,207.874329 
	C302.259979,210.264313 304.997620,212.879501 307.994324,215.688141 
	C309.739929,221.300995 313.771423,225.268433 315.881866,230.359055 
	C319.871582,239.982651 321.734253,249.936493 321.922211,260.728943 
	C319.996094,269.127747 319.238678,277.286316 315.290100,284.747223 
	C312.043518,290.881683 308.687897,296.872803 303.686859,301.654724 
	C301.078033,304.149231 299.871368,307.962128 296.039490,309.710876 
	C291.574677,310.761139 288.693085,314.117523 284.847992,315.813416 
	C274.187866,320.515228 263.218262,323.203979 251.066223,322.945251 
	C247.296112,321.944489 244.071274,320.734528 240.736740,320.144745 
	C230.074234,318.258972 221.249908,312.991943 213.362686,305.857727 
	C210.310776,303.097137 207.241745,300.355530 204.007477,297.312622 
z"/>
<path fill="#F0BF00" opacity="1.000000" stroke="none" 
	d="
M215.792938,204.799713 
	C215.910248,205.694778 215.439438,205.984634 214.448624,205.994080 
	C214.168427,205.125443 214.817108,204.844315 215.792938,204.799713 
z"/>
<path fill="#F0BF00" opacity="1.000000" stroke="none" 
	d="
M216.719238,203.863434 
	C216.903931,204.301956 216.714691,204.618149 216.251465,205.013672 
	C216.100098,204.642380 216.222702,204.191727 216.719238,203.863434 
z"/>
</svg>